<?xml version="1.0" encoding="utf-8"?>
<!-- Generator: Adobe Illustrator 28.0.0, SVG Export Plug-In . SVG Version: 6.00 Build 0)  -->
<svg version="1.1" id="Layer_1" xmlns="http://www.w3.org/2000/svg" xmlns:xlink="http://www.w3.org/1999/xlink" x="0px" y="0px"
	 viewBox="0 0 884.7 103.2" style="enable-background:new 0 0 884.7 103.2;" xml:space="preserve">
<style type="text/css">
	.st0{fill:#FFFFFF;}
</style>
<path class="st0" d="M10.4,80.2V4.6C30.1-2.1,49-0.8,66.6,11c1.5,1,2.6,3.5,2.6,5.4C69.4,39.7,69.4,63,69.4,88
	C50.6,75.9,31.1,73.7,10.4,80.2L10.4,80.2z"/>
<path class="st0" d="M75.1,88.8c0-25.4-0.2-49,0.3-72.5c0.1-2.8,4.2-5.6,6.5-8.4l2.4,1.4v42.9c4.1-3.8,7-6.5,10.2-9.4
	c3,2.8,5.7,5.3,10,9.3V0c9.4,1.4,17.5,2.4,25.4,4c1.4,0.3,3.3,2.9,3.3,4.5c0.2,23.6,0.1,47.1,0.1,72.1
	C112.7,74.2,93.9,76.4,75.1,88.8L75.1,88.8z"/>
<path class="st0" d="M495.6,28.6c1.1,21.6-2,43.3,2.1,65.5h-10.5c4.5-27.6,6.1-54.9-1.6-83.5c4.7,0,10.4-0.5,15.8,0.3
	c1.8,0.3,3.8,3.4,4.8,5.7c7.9,18.1,15.6,36.3,23.4,54.4c1.2,2.7,2.5,5.3,4.2,9.2c8.2-19.2,15.9-37.3,23.5-55.4
	c6.8-16.1,7.2-16.4,25.5-13.4c-11.3,22.5-3.8,46.6-5.4,69.9c-0.3,3.9,3.4,8.2,5.6,13h-25.1c11.3-22.1,2.8-45.5,4.3-68.5
	c-1,1.7-2.1,3.4-2.9,5.2c-6.8,15.9-13.6,31.8-20.2,47.7c-1.8,4.4-3.4,7.9-9.7,7.8c-6-0.1-8-2.9-9.9-7.5
	c-7.1-16.9-14.4-33.8-21.6-50.6C497.1,28.4,496.4,28.5,495.6,28.6L495.6,28.6z"/>
<path class="st0" d="M138.4,88V12c0.7-0.4,1.5-0.9,2.2-1.4c1.2,1.8,3.6,3.6,3.6,5.5c0.2,25.8,0.2,51.6,0.2,78
	c-8.3-1-16.1-1.9-23.8-2.9C104.8,89,90.7,93,77.4,101.4c-1.9,1.2-5.7,2.3-7,1.4C49.5,87.6,26.6,89.2,3.2,94.2c-0.8,0.2-1.6,0-3.2,0
	c0-27.7,0-55.4,0-83c1.5,0,3.1,0.1,4.6,0.1v76.4c9-1.1,17.1-2.3,25.2-3.1c13.6-1.3,26,2.4,37.7,9.4c2.3,1.4,6.7,2.3,8.6,1.1
	c17.5-11.8,36.4-12.6,56.2-8.3C134.1,87.2,135.9,87.5,138.4,88L138.4,88z"/>
<path class="st0" d="M191.7,22.4V11h78.4v11.3c-10.6-2.4-20.8-4.8-33.2-7.6c3.6,28.2-4.8,54.1,6.6,79.5h-25.2
	c11.7-25.2,3-51.4,6.8-79.6C212.6,17.5,202.4,19.9,191.7,22.4L191.7,22.4z"/>
<path class="st0" d="M396.7,96.4c-18-0.1-31.2-12.8-31.4-30.1c-0.2-17.1,13.3-30,31.4-30c18.7-0.1,32.1,12.5,32.2,30.1
	C429,83.7,415.4,96.4,396.7,96.4L396.7,96.4z M379,59.7c0.6,10,3.5,20.1,11.9,27.1c3.5,2.9,10.2,5.5,13.8,4.1
	c4.5-1.8,9.2-7.3,10.3-12.1c2.8-11.5-0.6-22.3-9-31c-4.9-5-10.5-9.2-18.2-5.9C380.1,45.1,379.4,52,379,59.7L379,59.7z"/>
<path class="st0" d="M650.6,65.7h-46.5c-0.5,12.1,8.8,25,19,27.1c7.9,1.6,13.3-3.1,17.9-15.9h8.9c-3.1,4.2-5.1,8-8,10.8
	c-10.7,10.4-27.3,11.5-39.3,3.1c-10.9-7.7-15.5-23.5-10.3-36c5.4-13,20.8-21.4,34.2-18.5C640.9,39.3,650.6,50.7,650.6,65.7
	L650.6,65.7z M637.7,59.8c-4.7-12.8-15.2-21-24-19.3c-7.9,1.5-12.1,8.4-11.5,19.3L637.7,59.8L637.7,59.8z"/>
<path class="st0" d="M833.1,65.9h-47.2c1.3,13.9,10.7,25.8,20.8,27c7.3,0.9,11.8-3.3,17-16.1h7.1c-1.7,11.7-19,22.3-34.1,19
	c-16.1-3.5-26.1-18.1-23.7-34.3c2.2-15.3,16.3-26.6,32.2-25.8C820.5,36.5,832.4,48.7,833.1,65.9L833.1,65.9z M784.7,59.8h35
	c-3.2-11.9-14.3-20.9-23.4-19.3C788.4,42,784.2,48.7,784.7,59.8z"/>
<path class="st0" d="M267.7,37.3h19.9c-9,12.3-5.3,25.1-5.5,37.4c-0.1,8.9,5.9,14.5,14.4,14.6c9.4,0.1,15.1-4.9,15.1-14.6
	c0-12.3-0.8-24.7-1.3-37.6h8.5c-0.7,12.9-1.6,25.5-2.1,38c-0.5,12.3-5,18.9-16.2,20c-16,1.6-23.7-2.2-28.1-12.8
	c-1.2-3-1.8-6.3-2-9.6C269.4,61.1,268.6,49.3,267.7,37.3L267.7,37.3z"/>
<path class="st0" d="M358.6,94.8c-16.6-1.7-22.4-8.2-22.7-22.9c-0.2-9.3-0.2-18.7-0.2-28c0-0.2-0.2-0.5-0.5-1.2
	c-2.7-0.7-5.7-1.6-8.7-2.4c0-0.9,0.1-1.7,0.1-2.6c2.7-0.6,5.3-1.1,8.7-1.8c2.6-8.7-5-23.5,13.7-24.3v24.2c3.4,0.7,6,1.2,8.5,1.7
	c0.2,0.7,0.4,1.3,0.6,2c-2.7,1.2-5.3,2.3-8.8,3.8C349.8,60.3,344.8,78.8,358.6,94.8L358.6,94.8z"/>
<path class="st0" d="M758.3,36c3.7,0.5,6,0.9,8.4,1.3c0.3,0.7,0.5,1.4,0.8,2.1c-2.6,1.1-5.2,2.2-8.9,3.8
	c1.4,16.8-5.4,35.5,11.7,51.4c-16.2,0.1-24.5-7.7-24.8-20.4c-0.3-10.4-0.1-20.8-0.1-31.1c-3.3-1.2-6.2-2.2-9-3.3
	c0.1-0.7,0.2-1.4,0.3-2.1c2.5-0.5,4.9-1,8.1-1.7c2.6-8.7-5.3-23.6,13.5-24.4L758.3,36L758.3,36z"/>
<path class="st0" d="M436.2,36.3c8,1.8,15.6-3.2,21.3,3.5c7-1.3,14.5-2.7,23.9-4.4c-1.1,5.9-1.7,9.2-2.4,13.1
	c-2.7-1.1-4.7-2-6.7-2.6c-10.6-3.2-15.9,0.5-15.6,11.6c0.4,12.1-3,24.9,7.5,36.7h-27.1C446.1,75.4,446.1,56.5,436.2,36.3L436.2,36.3
	z"/>
<path class="st0" d="M840.3,94.4c8.5-19,8.5-37.5,0-56c9.4-3.5,17.3-2.4,19.6,1.6c7.9-1.4,15.3-2.8,24.8-4.5c-1.3,6-2.1,9.3-2.9,13
	c-2.5-1-4.4-1.9-6.4-2.5c-10.5-3.2-16,0.6-15.9,11.4c0.1,12.4-2.1,25.2,7.4,37.1L840.3,94.4L840.3,94.4z"/>
<path class="st0" d="M690.3,80.6c2.2,1.7,4,3.1,5.8,4.5c2.1,1.7,4.3,4.9,6.3,4.9c6.2-0.1,14.7,0.6,17.9-3c4.3-4.8-2.9-9.2-7.1-12.3
	c-5.5-4.1-11.6-7.4-17.1-11.4c-10.5-7.5-9.5-19.8,2.6-24.2c6.2-2.3,13.8-1.5,20.8-1c5.6,0.4,8.1,4,5.4,11.2c-2.5-1.7-4.7-3.3-7-4.5
	c-3-1.7-6.3-4.4-9.3-4.2c-3.6,0.3-7,3.2-10.5,5c2,2.7,3.4,6,5.9,7.9c6.6,4.8,14.1,8.5,20.6,13.5c5.9,4.6,9.8,10.9,6.7,18.7
	c-3.1,7.7-10,10-17.5,9.6c-6-0.2-11.9-1.5-17.9-2.4C689.2,91.8,687.4,88,690.3,80.6L690.3,80.6z"/>
<path class="st0" d="M658,37.1h16.1c3.3,19-4,38.7,7,57.3h-22.6C665.5,75.4,665.7,56.8,658,37.1z"/>
<path class="st0" d="M679.8,23.2c-5.7,3.8-9.1,7.8-12,7.5c-3-0.3-7.2-4.6-7.9-7.8c-1.2-5.3,3.1-9.1,8.2-8.4
	C671.4,15.1,674.3,19,679.8,23.2z"/>
</svg>
